<?xml version="1.0" encoding="UTF-8" standalone="no"?>
<!DOCTYPE svg PUBLIC "-//W3C//DTD SVG 1.1//EN" "http://www.w3.org/Graphics/SVG/1.1/DTD/svg11.dtd">
<svg width="100%" height="100%" viewBox="0 0 222 303" version="1.1" xmlns="http://www.w3.org/2000/svg" xmlns:xlink="http://www.w3.org/1999/xlink" xml:space="preserve" xmlns:serif="http://www.serif.com/" style="fill-rule:evenodd;clip-rule:evenodd;stroke-linejoin:round;stroke-miterlimit:2;">
    <g>
        <clipPath id="_clip1">
            <rect x="0" y="0" width="626.81" height="302.93"/>
        </clipPath>
        <g clip-path="url(#_clip1)">
            <path d="M73.81,136.09C73.81,136.09 67.81,102.09 66.81,94.09C65.81,86.09 56.81,46.09 55.81,39.09C54.81,32.09 51.81,22.09 42.81,21.09C33.81,20.09 29.81,22.09 26.81,30.09C23.81,38.09 41.81,111.09 44.81,119.09C47.81,127.09 53.81,150.09 55.81,153.09C57.81,156.09 61.81,161.09 68.81,159.09C75.81,157.09 76.81,151.09 73.81,136.09Z" style="fill:#c6c6c6;fill-rule:nonzero;"/>
            <path d="M97.81,0.09C106.81,-0.81 111.81,5.09 112.81,9.09C113.81,13.09 118.81,79.09 118.81,97.09C118.81,115.09 120.81,141.09 117.81,146.09C114.81,151.09 113.81,152.09 107.81,152.09C101.81,152.09 98.81,146.09 97.81,139.09C96.64,130.93 94.81,123.09 92.81,105.09C92.46,101.95 84.81,22.09 84.81,15.09C84.81,8.09 87.81,1.09 97.81,0.09Z" style="fill:#c6c6c6;fill-rule:nonzero;"/>
            <path d="M161.81,18.09C172.81,17.36 174.81,27.09 174.81,33.09C174.81,37.09 170.81,68.09 169.81,75.09C168.81,82.09 162.71,115.87 161.81,123.09C160.81,131.09 157.65,146.4 155.81,150.09C154.81,152.09 151.81,156.09 146.81,155.09C141.81,154.09 138.81,154.09 138.81,145.09C138.81,136.09 142.81,90.09 142.81,85.09C142.81,80.09 146.81,48.09 147.81,44.09C148.81,40.09 146.81,19.09 161.81,18.09Z" style="fill:#c6c6c6;fill-rule:nonzero;"/>
            <path d="M211.81,56.09C219.81,56.76 222.81,63.09 221.81,67.09C220.81,71.09 215.81,91.09 213.81,98.09C211.81,105.09 199.81,145.09 198.81,147.09C197.81,149.09 193.81,161.09 192.81,163.09C191.92,164.88 187.81,166.09 184.81,165.09C181.81,164.09 177.81,163.09 179.81,153.09C181.81,143.09 185.81,123.09 186.81,119.09C187.81,115.09 194.81,82.09 197.81,75.09C200.81,68.09 199.81,55.09 211.81,56.09Z" style="fill:#c6c6c6;fill-rule:nonzero;"/>
            <path d="M0,130.5C-0.029,130.19 0.011,129.877 0.116,129.584C0.221,129.291 0.389,129.024 0.608,128.803C0.828,128.582 1.093,128.411 1.385,128.304C1.677,128.196 1.99,128.154 2.3,128.18C11.8,129.09 21.37,132.34 26.8,147.09C33.8,166.09 26.45,222.49 37.3,238.59C53.8,263.09 72.8,277.09 112.8,277.09C163.8,277.09 186.3,258.59 186.3,224.59C186.3,190.59 151.3,189.59 144.3,190.59C137.3,191.59 130.65,194.59 131.3,206.59C131.93,218.21 149.14,216.41 150.3,209.59C151.16,204.59 147.3,202.59 151.3,200.59C155.3,198.59 163.3,202.59 163.3,212.59C163.3,222.59 161.3,253.59 123.3,254.59C85.3,255.59 83.59,222.59 83.3,217.59C82.8,209.09 89.3,194.59 86.3,193.59C83.3,192.59 78.88,191.11 67.3,201.59C56.8,211.09 49.8,214.09 46.3,210.59C42.3,206.59 40.3,201.59 44.3,197.59C48.3,193.59 71.3,168.59 105.3,164.59C139.3,160.59 176.67,168.21 197.3,190.59C220.8,216.09 210.92,280.51 160.3,295.59C84.8,318.09 12.8,287.09 6.3,226.59C2.85,194.39 3.35,171.43 0,130.5Z" style="fill:#c6c6c6;fill-rule:nonzero;"/>
        </g>
    </g>
</svg>
